<svg width="16" height="15" viewBox="0 0 16 15" fill="none" xmlns="http://www.w3.org/2000/svg">
<path d="M7.73076 12.6141C7.57401 12.6107 7.42426 12.5486 7.31117 12.44L2.79867 7.91956C2.69965 7.81152 2.64471 7.67028 2.64471 7.52372C2.64471 7.37717 2.69965 7.23593 2.79867 7.12789L9.44075 0.374972C9.552 0.263591 9.70292 0.200944 9.86034 0.200806H14.4124C14.5685 0.200792 14.7184 0.26226 14.8295 0.371903C14.9406 0.481546 15.0041 0.630543 15.0062 0.786639L15.0537 5.28331C15.0539 5.44313 14.9914 5.59665 14.8795 5.71081L8.14242 12.4479C8.03186 12.5545 7.88431 12.614 7.73076 12.6141V12.6141ZM4.04951 7.49997L7.73076 11.1733L13.8741 5.03789L13.8266 1.38039L10.1058 1.36456L4.04951 7.49997Z" fill="#2D2D2D"/>
<path d="M9.93949 14.8229C9.86148 14.8233 9.78418 14.8081 9.71213 14.7782C9.64008 14.7482 9.57473 14.7043 9.51991 14.6487L0.605744 5.71083C0.533393 5.59924 0.500602 5.46659 0.512625 5.33414C0.524648 5.20169 0.580791 5.07711 0.672054 4.98037C0.763316 4.88364 0.884415 4.82034 1.01594 4.80063C1.14746 4.78091 1.2818 4.80593 1.39741 4.87166L10.3591 13.8333C10.4703 13.9447 10.5327 14.0956 10.5327 14.2529C10.5327 14.4103 10.4703 14.5612 10.3591 14.6725C10.3026 14.7241 10.2364 14.764 10.1644 14.7898C10.0923 14.8156 10.0159 14.8269 9.93949 14.8229V14.8229Z" fill="#2D2D2D"/>
<path d="M3.77241 14.7754C3.68961 14.7839 3.60594 14.7749 3.52684 14.749C3.44773 14.7231 3.37496 14.6808 3.31325 14.625L0.605748 11.8937C0.549408 11.8362 0.505011 11.7682 0.475118 11.6934C0.445225 11.6187 0.430428 11.5388 0.431581 11.4583C0.431581 11.1337 0.431581 11.1258 3.68533 7.95914C3.79871 7.84891 3.95124 7.78824 4.10935 7.79046C4.26747 7.79269 4.41823 7.85764 4.52846 7.97102C4.63869 8.0844 4.69936 8.23692 4.69714 8.39504C4.69491 8.55316 4.62996 8.70391 4.51658 8.81414C3.50325 9.80373 2.39491 10.8962 1.84866 11.4583L3.77241 13.3425L6.39283 10.6666C6.44741 10.6106 6.51266 10.5661 6.58472 10.5357C6.65678 10.5053 6.7342 10.4897 6.81242 10.4897C6.89063 10.4897 6.96805 10.5053 7.04011 10.5357C7.11217 10.5661 7.17742 10.6106 7.232 10.6666C7.34319 10.778 7.40564 10.9289 7.40564 11.0862C7.40564 11.2436 7.34319 11.3945 7.232 11.5058L4.15241 14.625C4.04617 14.7163 3.91235 14.7692 3.77241 14.7754Z" fill="#2D2D2D"/>
<path d="M7.73074 8.09371C7.65273 8.09408 7.57543 8.07886 7.50338 8.04895C7.43133 8.01904 7.36597 7.97505 7.31116 7.91954C7.19997 7.80821 7.13751 7.6573 7.13751 7.49996C7.13751 7.34261 7.19997 7.1917 7.31116 7.08038L10.4778 3.91371C10.5322 3.85537 10.5977 3.80858 10.6706 3.77613C10.7434 3.74368 10.822 3.72623 10.9017 3.72482C10.9815 3.72342 11.0607 3.73808 11.1346 3.76794C11.2085 3.79781 11.2757 3.84226 11.3321 3.89864C11.3884 3.95502 11.4329 4.02218 11.4628 4.09611C11.4926 4.17004 11.5073 4.24923 11.5059 4.32896C11.5045 4.40868 11.487 4.4873 11.4546 4.56013C11.4221 4.63297 11.3753 4.69852 11.317 4.75288L8.15032 7.91954C8.0955 7.97505 8.03015 8.01904 7.9581 8.04895C7.88605 8.07886 7.80875 8.09408 7.73074 8.09371V8.09371Z" fill="#2D2D2D"/>
</svg>
