<svg width="36" height="36" viewBox="0 0 36 36" fill="none" xmlns="http://www.w3.org/2000/svg">
<path d="M18 33C23.7885 33 28.5 28.2885 28.5 22.5C28.5 16.7115 23.7885 12 18 12C12.21 12 7.5 16.7115 7.5 22.5C7.5 28.2885 12.21 33 18 33ZM18 15C22.1355 15 25.5 18.3645 25.5 22.5C25.5 26.6355 22.1355 30 18 30C13.8645 30 10.5 26.6355 10.5 22.5C10.5 18.3645 13.8645 15 18 15ZM16.5 3H10.5V11.277C12.295 10.0758 14.3532 9.32513 16.5 9.0885V3ZM25.5 3H19.5V9.0885C21.6468 9.32513 23.705 10.0758 25.5 11.277V3Z" fill="#0023DC"/>
<path d="M15.0284 23.7165L14.3264 27.8055L17.9999 25.875L21.6734 27.8055L20.9714 23.7165L23.9444 20.8185L19.8374 20.2215L17.9999 16.5L16.1624 20.2215L12.0554 20.8185L15.0284 23.7165Z" fill="#AB70DF"/>
</svg>
