<svg width="11" height="10" viewBox="0 0 11 10" fill="none" xmlns="http://www.w3.org/2000/svg">
<path d="M10.6569 1.41117C10.1962 0.458447 8.86917 -0.32105 7.3255 0.132791C6.58787 0.347495 5.94429 0.807934 5.49992 1.43888C5.05556 0.807934 4.41198 0.347495 3.67434 0.132791C2.12724 -0.314121 0.803608 0.458447 0.342915 1.41117C-0.30343 2.74497 -0.035265 4.24507 1.14053 5.86989C2.06192 7.14133 3.37867 8.4301 5.29021 9.92674C5.35062 9.97422 5.42503 10 5.50164 10C5.57825 10 5.65267 9.97422 5.71308 9.92674C7.62117 8.43357 8.94137 7.15519 9.86275 5.86989C11.0351 4.24507 11.3033 2.74497 10.6569 1.41117V1.41117Z" fill="#DC3F00"/>
</svg>
