<svg width="47" height="59" viewBox="0 0 47 59" fill="none" xmlns="http://www.w3.org/2000/svg">
<path d="M23.5 0C15.4013 0 8.8125 6.61685 8.8125 14.75V23.6H5.875C4.31685 23.6 2.82252 24.2216 1.72075 25.3281C0.618971 26.4345 0 27.9352 0 29.5V53.1C0 54.6648 0.618971 56.1655 1.72075 57.2719C2.82252 58.3784 4.31685 59 5.875 59H41.125C42.6831 59 44.1775 58.3784 45.2793 57.2719C46.381 56.1655 47 54.6648 47 53.1V29.5C47 27.9352 46.381 26.4345 45.2793 25.3281C44.1775 24.2216 42.6831 23.6 41.125 23.6H38.1875V14.75C38.1875 6.61685 31.5987 0 23.5 0ZM14.6875 14.75C14.6875 9.8707 18.6414 5.9 23.5 5.9C28.3586 5.9 32.3125 9.8707 32.3125 14.75V23.6H14.6875V14.75ZM26.4375 46.3829V53.1H20.5625V46.3829C19.5355 45.7922 18.7109 44.9029 18.1973 43.8321C17.6838 42.7614 17.5054 41.5594 17.6858 40.3848C17.8661 39.2102 18.3967 38.1181 19.2076 37.2524C20.0185 36.3867 21.0716 35.7882 22.2281 35.5357C23.087 35.345 23.9777 35.3503 24.8343 35.5513C25.691 35.7523 26.4918 36.1438 27.1777 36.697C27.8636 37.2502 28.4171 37.951 28.7974 38.7477C29.1777 39.5443 29.3751 40.4165 29.375 41.3C29.3733 42.3317 29.1009 43.3448 28.5852 44.2371C28.0695 45.1295 27.3287 45.8696 26.4375 46.3829V46.3829Z" fill="black" fill-opacity="0.5"/>
</svg>
