<svg width="34" height="34" viewBox="0 0 34 34" fill="none" xmlns="http://www.w3.org/2000/svg">
<path d="M18.3521 1.12629C18.0652 1.38129 15.834 5.80926 15.834 5.80926L14.1738 12.5057L20.6338 11.9133C20.6338 11.9133 26.0074 1.92051 26.1163 1.68942C26.3102 1.26973 26.4138 1.09708 25.6727 1.09708C24.9316 1.09442 18.6204 0.887232 18.3521 1.12629V1.12629Z" fill="#176CC7"/>
<path d="M21.6962 11.4989C21.3748 11.3262 11.9079 11.1775 11.6848 11.4989C11.4829 11.7911 11.5971 13.3237 11.6742 13.507C11.8123 13.8257 14.8696 15.215 14.8696 15.215L14.8112 15.8471C14.8112 15.8471 15.0609 15.9109 16.8379 15.9109C18.615 15.9109 18.9656 15.8206 18.9656 15.8206L18.9709 15.2495C18.9709 15.2495 21.7228 13.9107 21.8609 13.7248C21.9778 13.5707 22.0176 11.6715 21.6962 11.4989ZM18.8779 13.9214C18.8779 13.9214 18.9656 13.5309 18.7823 13.4406C18.599 13.3476 15.454 13.3901 15.2043 13.4034C14.9546 13.4167 14.9546 13.8629 14.9546 13.8629L12.9731 12.8429L12.9359 12.4631L20.4531 12.5162L20.4265 12.8748L18.8779 13.9214V13.9214Z" fill="#F79429"/>
<path d="M15.741 13.7833C15.4913 13.7833 15.3479 14.0436 15.3479 14.4925C15.3479 14.9122 15.4913 15.2655 15.8074 15.239C16.0677 15.2177 16.1581 14.8193 16.1342 14.466C16.1102 14.0436 16.0571 13.7833 15.741 13.7833V13.7833Z" fill="#FDFFFF"/>
<path d="M7.7854 24.4615C7.7854 30.8258 13.5521 33.4741 17.3798 33.3599C21.8396 33.2271 26.6368 29.843 26.241 23.7708C25.8692 18.0732 21.072 15.4594 16.8804 15.4886C12.0088 15.5258 7.7854 18.9019 7.7854 24.4615V24.4615Z" fill="#F79429"/>
<path d="M17.178 32.3983C17.1116 32.3983 17.0425 32.3983 16.9761 32.3956C14.9839 32.3292 13.0156 31.4899 11.576 30.0953C10.0353 28.6025 9.19065 26.5838 9.20127 24.4136C9.22518 19.1144 13.8577 16.6573 17 16.6573H17.0266C21.2846 16.6759 24.7802 19.9856 24.8785 24.472C24.921 26.4695 24.2835 28.4564 22.6791 30.0342C21.181 31.5005 19.0135 32.3983 17.178 32.3983V32.3983ZM16.9947 17.5392C14.1764 17.5392 10.0088 19.8449 9.99815 24.4136C9.99018 27.8295 12.6358 31.3411 17.0425 31.4899C18.7213 31.543 20.6152 30.9214 22.0097 29.5508C23.46 28.1244 24.1108 26.265 24.0816 24.4853C24.0178 20.6258 20.8622 17.5552 17.0319 17.5392C17.0239 17.5339 17.0027 17.5392 16.9947 17.5392Z" fill="#D25116"/>
<path d="M15.4301 16.328C15.2468 16.0757 13.3688 16.1474 11.3474 17.8872C9.33927 19.6164 9.03911 21.5289 9.40036 21.6299C9.81208 21.7441 10.3141 19.8953 12.0486 18.3414C13.6424 16.9203 15.794 16.83 15.4301 16.328V16.328ZM23.5024 23.2794C22.8622 23.3697 23.5263 25.2875 22.0415 27.4338C20.7532 29.2958 19.2922 29.9705 19.4622 30.3796C19.6907 30.9267 22.0308 29.5641 23.1146 27.3435C24.0947 25.3327 23.9779 23.2103 23.5024 23.2794Z" fill="#FEFFFA"/>
<path d="M6.77618 0.988114C6.60883 1.14218 13.0077 12.5375 13.0077 12.5375C13.0077 12.5375 14.0809 12.6756 16.4768 12.6969C18.8727 12.7181 20.0601 12.5587 20.0601 12.5587C20.0601 12.5587 15.0849 1.10233 14.7874 0.988114C14.6413 0.929676 12.6704 0.908426 10.7446 0.887176C8.81618 0.86327 6.93555 0.839364 6.77618 0.988114V0.988114Z" fill="#2E9DF4"/>
<path d="M19.9085 22.2355C19.6004 19.566 16.4926 19.3429 15.2043 20.3682C13.9505 21.3669 14.0701 22.7588 14.9493 22.9208C15.6426 23.0483 15.8232 22.4985 16.0251 22.2462C16.482 21.6804 17.2098 21.6272 17.6852 22.0815C18.2245 22.5994 17.8924 23.8372 17.0823 23.8877C16.4793 23.9249 16.1738 23.893 16.0968 23.9966C15.9879 24.1427 16.0038 25.2929 16.1154 25.4204C16.2429 25.5665 16.7529 25.4762 17.1912 25.4921C17.7941 25.516 18.4343 26.4085 18.0119 27.0779C17.5737 27.7712 16.4076 27.4604 15.9879 27.0407C15.4327 26.4855 14.8776 26.8043 14.6916 27.0221C14.3995 27.3674 14.0887 28.1537 15.1671 28.9187C16.2429 29.6837 19.5074 29.8298 20.1662 27.4604C20.7399 25.3912 19.4012 24.5412 19.4012 24.5412C19.4012 24.5412 20.0838 23.7576 19.9085 22.2355V22.2355Z" fill="#D25116"/>
</svg>
