<svg width="11" height="11" viewBox="0 0 11 11" fill="none" xmlns="http://www.w3.org/2000/svg">
<rect x="2.28052" y="1.08618" width="6.59233" height="9.24891" fill="#1B53BA"/>
<rect x="2.28052" y="1.39972" width="6.59233" height="0.783806" fill="#0F43A4"/>
<rect x="2.28052" y="9.23773" width="6.59233" height="0.783806" fill="#0F43A4"/>
<rect x="2.28052" y="7.35663" width="6.59233" height="0.783806" fill="#0F43A4"/>
<rect x="2.28052" y="3.15436" width="6.59233" height="0.783806" fill="#0F43A4"/>
<rect x="0.287476" y="1.08618" width="1.83972" height="4.85959" fill="#D28800"/>
<rect x="0.900696" y="5.789" width="1.22648" height="4.07579" fill="#D28800"/>
<rect x="8.8728" y="1.08618" width="1.83972" height="4.85959" fill="#D28800"/>
<rect x="8.8728" y="5.789" width="1.22648" height="4.07579" fill="#D28800"/>
<rect x="2.1272" y="5.31873" width="6.74564" height="0.940567" fill="#E6C32F"/>
<mask id="mask0_21_1895" style="mask-type:alpha" maskUnits="userSpaceOnUse" x="0" y="0" width="11" height="11">
<path d="M10.6071 0.65509H9.03571C8.93153 0.65509 8.8316 0.697394 8.75793 0.772751C8.68423 0.848069 8.64286 0.950249 8.64286 1.05679V1.45849H2.35714V1.05679C2.35714 0.950257 2.31577 0.848078 2.24207 0.772751C2.16841 0.69739 2.06848 0.65509 1.96429 0.65509H0.392857C0.288668 0.65509 0.188739 0.697394 0.11507 0.772751C0.0413684 0.848069 0 0.950249 0 1.05679V5.8772C0 5.98373 0.0413726 6.08591 0.11507 6.16124C0.188731 6.2366 0.288661 6.2789 0.392857 6.2789V9.8942C0.392857 10.0007 0.43423 10.1029 0.507928 10.1782C0.581588 10.2536 0.681518 10.2959 0.785714 10.2959H10.2143C10.3185 10.2959 10.4184 10.2536 10.4921 10.1782C10.5658 10.1029 10.6071 10.0007 10.6071 9.8942V6.2789C10.7113 6.2789 10.8113 6.23659 10.8849 6.16124C10.9586 6.08592 11 5.98374 11 5.8772V1.05679C11 0.950257 10.9586 0.848078 10.8849 0.772751C10.8113 0.69739 10.7113 0.65509 10.6071 0.65509ZM9.42857 1.45849H10.2143V5.4755H9.42857V1.45849ZM8.64286 2.26189V5.4755H7.07143V5.07379C7.07143 4.86072 6.98864 4.65636 6.84128 4.50573C6.69396 4.35505 6.49409 4.27039 6.28571 4.27039H4.71429C4.5059 4.27039 4.30604 4.35504 4.15872 4.50573C4.01136 4.65636 3.92857 4.86073 3.92857 5.07379V5.4755H2.35714V2.26189H8.64286ZM6.28571 6.6806H4.71429V5.07379H6.28571V6.6806ZM0.785714 1.45849H1.57143V5.4755H0.785714V1.45849ZM1.17857 6.2789H1.96429V9.4925H1.17857V6.2789ZM2.75 6.2789H3.92857V6.6806C3.92857 6.89367 4.01136 7.09803 4.15872 7.24867C4.30604 7.39934 4.50591 7.484 4.71429 7.484H5.10714V7.8857C5.10714 8.02922 5.18203 8.16182 5.30357 8.23359C5.42512 8.30535 5.57488 8.30535 5.69643 8.23359C5.81797 8.16183 5.89286 8.02923 5.89286 7.8857V7.484H6.28571C6.4941 7.484 6.69396 7.39935 6.84128 7.24867C6.98864 7.09803 7.07143 6.89366 7.07143 6.6806V6.2789H8.25V9.4925H2.75V6.2789ZM9.82143 9.4925H9.03571V6.2789H9.82143V9.4925Z" fill="black"/>
</mask>
<g mask="url(#mask0_21_1895)">
<path fill-rule="evenodd" clip-rule="evenodd" d="M2.44285 -2.36255H-2.31879V6.25931H-2.02118V14.0974H2.74045V5.47551H2.44285V-2.36255Z" fill="#E6C32F"/>
<path fill-rule="evenodd" clip-rule="evenodd" d="M13.3188 -2.36255H8.4129V6.25931H8.71952V14.0974H13.6254V5.47551H13.3188V-2.36255Z" fill="#E6C32F"/>
</g>
<rect x="3.96692" y="4.22144" width="3.0662" height="3.29198" rx="1.5331" fill="#FBCF04"/>
<path d="M5.50003 5.00519C4.83194 5.00519 5.03608 5.64271 5.22166 5.96147C4.99896 6.66764 5.12887 6.74611 5.22166 6.69707C5.40724 6.72159 5.79232 6.75592 5.848 6.69707C5.90367 6.63822 5.8248 6.13311 5.77841 5.88791C5.96399 5.59367 6.16812 5.00519 5.50003 5.00519Z" fill="#DB8E00"/>
</svg>
