<svg width="17" height="18" viewBox="0 0 17 18" fill="none" xmlns="http://www.w3.org/2000/svg">
<path d="M8.50767 17.0667C6.91097 17.0684 5.34968 16.5962 4.02152 15.71C2.69337 14.8237 1.6581 13.5632 1.04684 12.0882C0.435578 10.6131 0.275817 8.98982 0.58779 7.4239C0.899764 5.85797 1.66944 4.41986 2.79933 3.29168V3.29168C3.73746 2.3503 4.89344 1.65502 6.16471 1.26753C7.43599 0.880041 8.78325 0.812316 10.087 1.07036C11.3907 1.32841 12.6106 1.90426 13.6384 2.74681C14.6662 3.58936 15.4701 4.67257 15.9789 5.90034C16.4877 7.12811 16.6856 8.46248 16.555 9.78507C16.4244 11.1077 15.9694 12.3776 15.2304 13.4821C14.4913 14.5867 13.4911 15.4918 12.3183 16.1171C11.1456 16.7424 9.83668 17.0686 8.50767 17.0667V17.0667ZM8.50767 2.18335C7.61174 2.18024 6.72407 2.35464 5.89592 2.69648C5.06777 3.03833 4.31554 3.54084 3.68267 4.17501V4.17501C2.4458 5.4634 1.76323 7.18529 1.78145 8.97119C1.79966 10.7571 2.5172 12.4647 3.78009 13.7276C5.04298 14.9905 6.75059 15.708 8.53649 15.7262C10.3224 15.7444 12.0443 15.0619 13.3327 13.825C14.288 12.8716 14.9388 11.6562 15.2026 10.3326C15.4664 9.00897 15.3314 7.63685 14.8147 6.39006C14.2979 5.14327 13.4227 4.07793 12.2999 3.32904C11.1771 2.58015 9.8573 2.18141 8.50767 2.18335V2.18335Z" fill="#2D2D2D"/>
<path d="M8.50766 11.2417C8.0643 11.2417 7.6309 11.1102 7.26226 10.8639C6.89362 10.6176 6.6063 10.2675 6.43663 9.85788C6.26696 9.44827 6.22257 8.99754 6.30907 8.5627C6.39556 8.12786 6.60906 7.72843 6.92256 7.41493C7.23606 7.10143 7.63549 6.88793 8.07033 6.80144C8.50517 6.71494 8.9559 6.75933 9.36551 6.929C9.77512 7.09867 10.1252 7.38599 10.3715 7.75463C10.6179 8.12327 10.7493 8.55667 10.7493 9.00003C10.7471 9.59388 10.5102 10.1628 10.0903 10.5827C9.67041 11.0026 9.10151 11.2395 8.50766 11.2417V11.2417ZM8.50766 8.00836C8.31153 8.00836 8.1198 8.06652 7.95672 8.17549C7.79364 8.28445 7.66653 8.43933 7.59148 8.62054C7.51642 8.80174 7.49678 9.00113 7.53505 9.19349C7.57331 9.38586 7.66776 9.56256 7.80644 9.70124C7.94513 9.83993 8.12183 9.93438 8.31419 9.97264C8.50656 10.0109 8.70595 9.99127 8.88715 9.91621C9.06836 9.84115 9.22323 9.71405 9.3322 9.55097C9.44116 9.38789 9.49932 9.19616 9.49932 9.00003C9.49932 8.73702 9.39485 8.48479 9.20887 8.29882C9.0229 8.11284 8.77066 8.00836 8.50766 8.00836V8.00836Z" fill="#2D2D2D"/>
<path d="M15.9577 9.625H10.1243C9.95857 9.625 9.7996 9.55915 9.68239 9.44194C9.56518 9.32473 9.49933 9.16576 9.49933 9C9.49933 8.83424 9.56518 8.67527 9.68239 8.55806C9.7996 8.44085 9.95857 8.375 10.1243 8.375H15.9577C16.1234 8.375 16.2824 8.44085 16.3996 8.55806C16.5168 8.67527 16.5827 8.83424 16.5827 9C16.5827 9.16576 16.5168 9.32473 16.3996 9.44194C16.2824 9.55915 16.1234 9.625 15.9577 9.625Z" fill="#2D2D2D"/>
<path d="M6.89083 9.625H1.0575C0.891735 9.625 0.732764 9.55915 0.615554 9.44194C0.498343 9.32473 0.432495 9.16576 0.432495 9C0.432495 8.83424 0.498343 8.67527 0.615554 8.55806C0.732764 8.44085 0.891735 8.375 1.0575 8.375H6.89083C7.05659 8.375 7.21556 8.44085 7.33277 8.55806C7.44998 8.67527 7.51583 8.83424 7.51583 9C7.51583 9.16576 7.44998 9.32473 7.33277 9.44194C7.21556 9.55915 7.05659 9.625 6.89083 9.625Z" fill="#2D2D2D"/>
<path d="M8.50769 17.075C8.3426 17.0729 8.18488 17.0063 8.06814 16.8896C7.95139 16.7728 7.88485 16.6151 7.88269 16.45V10.6167C7.88269 10.4509 7.94854 10.292 8.06575 10.1748C8.18296 10.0575 8.34193 9.9917 8.50769 9.9917C8.67345 9.9917 8.83242 10.0575 8.94963 10.1748C9.06684 10.292 9.13269 10.4509 9.13269 10.6167V16.45C9.13053 16.6151 9.06399 16.7728 8.94725 16.8896C8.8305 17.0063 8.67278 17.0729 8.50769 17.075V17.075Z" fill="#2D2D2D"/>
</svg>
