<svg width="18" height="17" viewBox="0 0 18 17" fill="none" xmlns="http://www.w3.org/2000/svg">
<path d="M9.27699 11.3971C8.19491 11.3971 7.15715 10.9673 6.392 10.2021C5.62685 9.43696 5.19699 8.39919 5.19699 7.31711V2.58545C5.18621 2.43216 5.18621 2.27831 5.19699 2.12503C5.20583 2.05573 5.22823 1.98885 5.26291 1.92821C5.2976 1.86756 5.34389 1.81435 5.39914 1.77159C5.45439 1.72884 5.51752 1.69739 5.58493 1.67903C5.65233 1.66067 5.72269 1.65578 5.79199 1.66461C5.86129 1.67345 5.92817 1.69585 5.98882 1.73053C6.04946 1.76522 6.10268 1.81151 6.14543 1.86676C6.18818 1.92201 6.21964 1.98514 6.23799 2.05254C6.25635 2.11995 6.26125 2.19031 6.25241 2.25961C6.2449 2.36809 6.2449 2.47696 6.25241 2.58545V7.31711C6.25241 8.1174 6.57032 8.88491 7.13622 9.4508C7.70211 10.0167 8.46962 10.3346 9.26991 10.3346C10.0702 10.3346 10.8377 10.0167 11.4036 9.4508C11.9695 8.88491 12.2874 8.1174 12.2874 7.31711V2.58545C12.2949 2.47696 12.2949 2.36809 12.2874 2.25961C12.2906 2.13289 12.3391 2.0115 12.424 1.91737C12.5089 1.82323 12.6247 1.76257 12.7504 1.74632C12.8761 1.73007 13.0035 1.75931 13.1095 1.82876C13.2156 1.89821 13.2933 2.00329 13.3287 2.12503C13.3394 2.27831 13.3394 2.43216 13.3287 2.58545V7.31711C13.3287 8.3943 12.9027 9.4278 12.1437 10.1921C11.3847 10.9565 10.3542 11.3896 9.27699 11.3971V11.3971Z" fill="#2D2D2D"/>
<path d="M13.2082 7.08333C13.1108 7.08249 13.0154 7.05558 12.9319 7.00541L12.5494 6.77874C12.435 6.70567 12.3529 6.59155 12.3199 6.45982C12.287 6.32809 12.3058 6.18874 12.3724 6.07041C12.4431 5.95339 12.5567 5.86864 12.6891 5.83423C12.8214 5.79983 12.9619 5.81849 13.0807 5.88625L13.3286 6.035C15.2199 5.89333 15.6519 3.73999 15.7936 2.71999H2.76028C2.85945 3.74708 3.31278 5.89333 5.20403 5.99249L5.45195 5.84374C5.57071 5.77599 5.71125 5.75733 5.84358 5.79174C5.97591 5.82614 6.08956 5.91089 6.16028 6.02791C6.22688 6.14624 6.24564 6.28559 6.21271 6.41732C6.17977 6.54905 6.09765 6.66317 5.9832 6.73625L5.6007 6.96291C5.51722 7.01308 5.42184 7.03999 5.32445 7.04083C2.4132 7.04083 1.64111 3.85333 1.64111 2.16749C1.64845 2.0272 1.71034 1.89534 1.81357 1.80005C1.9168 1.70477 2.05318 1.65361 2.19361 1.65749H16.3603C16.5006 1.65933 16.6347 1.71589 16.7339 1.81512C16.8331 1.91436 16.8897 2.04842 16.8915 2.18874C16.8915 3.87458 16.1194 7.08333 13.2082 7.08333Z" fill="#2D2D2D"/>
<path d="M9.27698 15.3425C9.13665 15.3407 9.00259 15.2841 8.90336 15.1849C8.80412 15.0856 8.74756 14.9516 8.74573 14.8113V10.8658C8.74573 10.7249 8.8017 10.5898 8.90133 10.4902C9.00096 10.3906 9.13608 10.3346 9.27698 10.3346C9.41787 10.3346 9.553 10.3906 9.65263 10.4902C9.75226 10.5898 9.80823 10.7249 9.80823 10.8658V14.8113C9.80639 14.9516 9.74983 15.0856 9.6506 15.1849C9.55137 15.2841 9.4173 15.3407 9.27698 15.3425V15.3425Z" fill="#2D2D2D"/>
<path d="M13.2224 15.3425H6.13904C5.99814 15.3425 5.86302 15.2865 5.76339 15.1869C5.66376 15.0872 5.60779 14.9521 5.60779 14.8112C5.60779 14.6703 5.66376 14.5352 5.76339 14.4356C5.86302 14.3359 5.99814 14.28 6.13904 14.28H13.2224C13.3633 14.28 13.4984 14.3359 13.598 14.4356C13.6977 14.5352 13.7536 14.6703 13.7536 14.8112C13.7536 14.9521 13.6977 15.0872 13.598 15.1869C13.4984 15.2865 13.3633 15.3425 13.2224 15.3425Z" fill="#2D2D2D"/>
</svg>
