<svg width="60" height="66" viewBox="0 0 60 66" fill="none" xmlns="http://www.w3.org/2000/svg">
<path fill-rule="evenodd" clip-rule="evenodd" d="M40.2643 2.28257C39.9927 1.75884 39.6083 1.29675 39.1368 0.927014C38.6653 0.557278 38.1175 0.288364 37.5297 0.138143C36.9419 -0.0120771 36.3276 -0.0401635 35.7276 0.05575C35.1277 0.151663 34.5558 0.36938 34.05 0.694432C32.5714 1.64319 31.4186 2.99621 30.5272 4.32447C29.61 5.68573 28.8 7.26562 28.0843 8.92801C26.6529 12.2445 25.4529 16.2211 24.4843 20.2059C23.313 25.0754 22.4358 30.0063 21.8572 34.9735C20.1134 33.8915 18.7124 32.3689 17.8072 30.5721C16.4014 27.7671 16.1014 24.2443 16.1014 19.6242C16.1013 18.8085 15.8498 18.0112 15.3789 17.333C14.9079 16.6548 14.2387 16.1262 13.4557 15.814C12.6727 15.5019 11.8111 15.4202 10.9799 15.5793C10.1487 15.7384 9.3851 16.1311 8.78573 16.7078C5.99644 19.3868 3.78442 22.5697 2.27671 26.0738C0.768999 29.5779 -0.00470619 33.3341 2.15363e-05 37.1268C0.00037751 41.8752 1.21736 46.5503 3.54318 50.7379C5.86901 54.9255 9.23188 58.4964 13.3339 61.1343C17.436 63.7722 22.1506 65.3957 27.0603 65.861C31.9699 66.3263 36.923 65.6191 41.4808 63.8019C46.0386 61.9847 50.0605 59.1137 53.1902 55.4431C56.3199 51.7725 58.4609 47.4157 59.4234 42.7586C60.386 38.1014 60.1404 33.2876 58.7085 28.7436C57.2766 24.1996 54.7025 20.0657 51.2143 16.7078C48.6771 14.2699 47.0143 12.6447 45.4371 10.6564C43.8814 8.69289 42.3343 6.27149 40.2643 2.28257V2.28257ZM39.0857 54.122C37.2877 55.8505 34.9978 57.0273 32.5052 57.5039C30.0127 57.9805 27.4293 57.7355 25.0813 56.7997C22.7334 55.864 20.7262 54.2795 19.3133 52.2464C17.9004 50.2134 17.1451 47.8229 17.1429 45.3769C17.1429 45.3769 20.91 47.4394 27.8572 47.4394C27.8572 43.3144 30 30.9392 33.2143 28.8767C35.3572 33.0018 36.5829 34.2104 39.09 36.6277C40.2859 37.7752 41.2343 39.1389 41.8808 40.6404C42.5273 42.1419 42.8591 43.7515 42.8571 45.3769C42.8591 47.0022 42.5273 48.6119 41.8808 50.1134C41.2343 51.6149 40.2859 52.9786 39.09 54.1261L39.0857 54.122Z" fill="#E3350D"/>
</svg>
