<svg width="17" height="17" viewBox="0 0 17 17" fill="none" xmlns="http://www.w3.org/2000/svg">
<path d="M8.50003 16.1554C8.4038 16.158 8.30848 16.1362 8.22295 16.0921C7.97753 15.9575 2.11128 12.8462 0.8842 8.6504C0.179616 6.2754 0.417116 3.95582 1.51753 2.48332C1.91973 1.9519 2.44426 1.52542 3.04656 1.24011C3.64887 0.954812 4.31114 0.819121 4.97712 0.844568C5.692 0.809553 6.40221 0.977574 7.02562 1.32921C7.64903 1.68084 8.1602 2.20173 8.50003 2.83165C8.83986 2.20173 9.35103 1.68084 9.97445 1.32921C10.5979 0.977574 11.3081 0.809553 12.0229 0.844568C12.6889 0.819121 13.3512 0.954812 13.9535 1.24011C14.5558 1.52542 15.0803 1.9519 15.4825 2.48332C16.5829 3.95582 16.8204 6.25957 16.1159 8.6504C14.8888 12.8462 8.99087 15.9575 8.77712 16.0921C8.69158 16.1362 8.59626 16.158 8.50003 16.1554ZM4.97712 2.03207C4.49567 2.00708 4.01541 2.10003 3.57806 2.30284C3.14071 2.50565 2.75949 2.81219 2.46753 3.19582C1.5967 4.36749 1.42253 6.28332 2.0242 8.3179C2.9742 11.5558 7.35212 14.2317 8.50003 14.8887C9.64795 14.2317 14.0417 11.5479 14.9759 8.3179C15.5775 6.28332 15.4034 4.35957 14.5325 3.19582C14.2406 2.81219 13.8594 2.50565 13.422 2.30284C12.9847 2.10003 12.5044 2.00708 12.0229 2.03207C9.31545 2.03207 9.10962 4.65249 9.09378 4.9454C9.08575 5.09806 9.0199 5.24194 8.90962 5.34781C8.79934 5.45368 8.65289 5.5136 8.50003 5.5154C8.34717 5.5136 8.20072 5.45368 8.09044 5.34781C7.98016 5.24194 7.91432 5.09806 7.90628 4.9454C7.89045 4.65249 7.70837 2.03207 4.97712 2.03207Z" fill="#2D2D2D"/>
<path d="M15.5459 9.07788H1.45422C1.29675 9.07788 1.14573 9.01533 1.03438 8.90398C0.923029 8.79263 0.860474 8.6416 0.860474 8.48413C0.860474 8.32666 0.923029 8.17564 1.03438 8.06429C1.14573 7.95294 1.29675 7.89038 1.45422 7.89038H15.5459C15.7034 7.89038 15.8544 7.95294 15.9657 8.06429C16.0771 8.17564 16.1396 8.32666 16.1396 8.48413C16.1396 8.6416 16.0771 8.79263 15.9657 8.90398C15.8544 9.01533 15.7034 9.07788 15.5459 9.07788Z" fill="#2D2D2D"/>
</svg>
